<svg width="24" height="24" viewBox="0 0 24 24" fill="none" xmlns="http://www.w3.org/2000/svg">
<path d="M8.61014 3.60642C9.66613 0.358732 14.4364 0.358731 15.4924 3.60642C15.7004 4.24618 16.4503 4.59776 17.0941 4.35728C20.3622 3.13538 23.3365 6.76453 21.385 9.59285C21.0007 10.15 21.1865 10.9409 21.7813 11.2806C24.8002 13.0051 23.7388 17.5292 20.2496 17.808C19.5622 17.863 19.0431 18.4969 19.141 19.1612C19.6379 22.5331 15.3403 24.5465 12.9407 22.0659C12.468 21.5774 11.6346 21.5774 11.1618 22.0659C8.76224 24.5465 4.46466 22.5331 4.96152 19.1612C5.05944 18.4969 4.5403 17.863 3.85295 17.808C0.363744 17.5292 -0.697645 13.0051 2.32123 11.2806C2.91599 10.9409 3.10183 10.15 2.71756 9.59285C0.766003 6.76453 3.7403 3.13538 7.00848 4.35728C7.65224 4.59776 8.40218 4.24618 8.61014 3.60642ZM13.2158 4.30737C12.8631 3.22251 11.2394 3.22251 10.8867 4.30737C10.264 6.22306 8.07928 7.24659 6.15169 6.52591C5.06022 6.11783 4.04784 7.35293 4.69924 8.29757C5.85028 9.96573 5.31097 12.2666 3.53005 13.2836C2.5216 13.8596 2.88332 15.4 4.04878 15.4931C6.10657 15.6578 7.6187 17.5025 7.32555 19.4912C7.15989 20.6173 8.62235 21.3028 9.4238 20.4746C10.8391 19.0115 13.2634 19.0115 14.6787 20.4746C15.4802 21.3028 16.9426 20.6173 16.777 19.4912C16.4838 17.5025 17.996 15.6578 20.0538 15.4931C21.2192 15.4 21.5809 13.8596 20.5725 13.2836C18.7916 12.2666 18.2523 9.96573 19.4033 8.29757C20.0547 7.35293 19.0423 6.11783 17.9508 6.52591C16.0233 7.24659 13.8386 6.22306 13.2158 4.30737Z" fill="#1F2937"/>
<path d="M13.9798 12.6707C13.9798 11.6055 13.1164 10.7421 12.0513 10.7421C10.9861 10.7421 10.1227 11.6055 10.1227 12.6707C10.1227 13.7358 10.9861 14.5992 12.0513 14.5992C13.1164 14.5992 13.9798 13.7358 13.9798 12.6707ZM16.5513 12.6707C16.5513 15.1559 14.5366 17.1707 12.0513 17.1707C9.56599 17.1707 7.55127 15.1559 7.55127 12.6707C7.55127 10.1854 9.56599 8.17065 12.0513 8.17065C14.5366 8.17065 16.5513 10.1854 16.5513 12.6707Z" fill="#1F2937"/>
</svg>
