<svg width="35" height="35" viewBox="0 0 35 35" fill="none" xmlns="http://www.w3.org/2000/svg">
<circle cx="17.5" cy="17.5" r="17.5" fill="#FBCB5E"/>
<path d="M13.5 25C13.9444 24.3333 15.3667 23 17.5 23C19.6333 23 21.0556 24.3333 21.5 25" stroke="#111827" stroke-width="2.6" stroke-linecap="round"/>
<path d="M10.4357 16.8396C11.9709 17.4812 13.7142 16.8831 14.5518 15.5025C14.695 15.2664 14.5717 14.9708 14.3169 14.8643L11.7158 13.7771L9.11464 12.6899C8.85986 12.5834 8.56283 12.7033 8.49545 12.9711C8.10144 14.5371 8.90064 16.1979 10.4357 16.8396Z" fill="#111827"/>
<path d="M24.5643 16.8396C23.0291 17.4812 21.2858 16.8831 20.4482 15.5025C20.305 15.2664 20.4283 14.9708 20.6831 14.8643L23.2842 13.7771L25.8854 12.6899C26.1401 12.5834 26.4372 12.7033 26.5045 12.9711C26.8986 14.5371 26.0994 16.1979 24.5643 16.8396Z" fill="#111827"/>
</svg>
