<svg width="28" height="28" viewBox="0 0 28 28" fill="none" xmlns="http://www.w3.org/2000/svg">
<path d="M23.1182 7.06845C23.4005 7.34669 23.4037 7.80107 23.1255 8.08336L17.9716 13.3126C17.6921 13.5962 17.6969 14.0532 17.9824 14.3308L23.6505 19.8439C23.9346 20.1203 23.9409 20.5747 23.6646 20.8588L20.8766 23.7257C20.6002 24.0098 20.1458 24.0162 19.8616 23.7398L14.1608 18.1951C13.878 17.92 13.4262 17.9248 13.1492 18.2059L7.78446 23.6499C7.50623 23.9322 7.05181 23.9356 6.76948 23.6573L3.92096 20.8501C3.63865 20.5718 3.63532 20.1175 3.91352 19.8351L9.24676 14.4228C9.52625 14.1391 9.5214 13.6822 9.23595 13.4045L4.19467 8.50122C3.91051 8.22484 3.90422 7.77043 4.18062 7.4863L6.96949 4.61933C7.24587 4.33521 7.70025 4.32893 7.98437 4.60531L13.0576 9.54024C13.3403 9.81532 13.7921 9.81058 14.0691 9.52964L19.2555 4.26854C19.5338 3.98626 19.9882 3.98301 20.2705 4.26127L23.1182 7.06845Z" fill="#0EBC80"/>
</svg>
