<svg width="49" height="49" viewBox="0 0 49 49" fill="none" xmlns="http://www.w3.org/2000/svg">
<circle opacity="0.3" cx="24.5" cy="24" r="24" fill="#FBCB5E"/>
<circle cx="24.5" cy="24" r="17.5" fill="#FBCB5E"/>
<path d="M20.5 31.5C20.9444 30.8333 22.3667 29.5 24.5 29.5C26.6333 29.5 28.0556 30.8333 28.5 31.5" stroke="#111827" stroke-width="2.6" stroke-linecap="round"/>
<path d="M17.4357 23.3396C18.9709 23.9812 20.7142 23.3831 21.5518 22.0025C21.695 21.7664 21.5717 21.4708 21.3169 21.3643L18.7158 20.2771L16.1146 19.1899C15.8599 19.0834 15.5628 19.2033 15.4955 19.4711C15.1014 21.0371 15.9006 22.6979 17.4357 23.3396Z" fill="#111827"/>
<path d="M31.5643 23.3396C30.0291 23.9812 28.2858 23.3831 27.4482 22.0025C27.305 21.7664 27.4283 21.4708 27.6831 21.3643L30.2842 20.2771L32.8854 19.1899C33.1401 19.0834 33.4372 19.2033 33.5045 19.4711C33.8986 21.0371 33.0994 22.6979 31.5643 23.3396Z" fill="#111827"/>
</svg>
