<svg width="17" height="16" viewBox="0 0 17 16" fill="none" xmlns="http://www.w3.org/2000/svg">
<path d="M8.5 8.9668C9.71554 8.96686 10.5267 9.71789 10.8066 10.1377C10.9869 10.4087 10.9133 10.7754 10.6426 10.9561C10.3716 11.1366 10.0049 11.0629 9.82422 10.792C9.70043 10.6066 9.22008 10.1465 8.5 10.1465C7.78001 10.1465 7.29971 10.6065 7.17578 10.792C6.99506 11.0629 6.62843 11.1366 6.35742 10.9561C6.08653 10.7754 6.01301 10.4087 6.19336 10.1377C6.47335 9.71785 7.2845 8.9668 8.5 8.9668Z" fill="#111827"/>
<path d="M4.37207 5.93262C4.3902 5.65754 4.6927 5.5352 4.94727 5.6416L6.80371 6.41699C7.05832 6.52344 7.18323 6.82509 7 7.03125C6.58439 7.49771 5.90373 7.67321 5.29492 7.41895C4.68602 7.16444 4.33211 6.55623 4.37207 5.93262Z" fill="#111827"/>
<path d="M12.0537 5.6416C12.3082 5.53535 12.6108 5.65758 12.6289 5.93262C12.6689 6.55614 12.3148 7.16437 11.7061 7.41895C11.0972 7.67345 10.4157 7.49782 10 7.03125C9.81693 6.82515 9.94184 6.52349 10.1963 6.41699L12.0537 5.6416Z" fill="#111827"/>
<path fill-rule="evenodd" clip-rule="evenodd" d="M8.5 0.950195C12.3934 0.950407 15.5498 4.1075 15.5498 8.00098C15.5493 11.894 12.3931 15.0506 8.5 15.0508C4.60669 15.0508 1.44969 11.8942 1.44922 8.00098C1.44922 4.10737 4.60639 0.950195 8.5 0.950195ZM8.5 2.25098C5.32436 2.25098 2.75 4.82534 2.75 8.00098C2.75048 11.1762 5.32466 13.751 8.5 13.751C11.6752 13.7508 14.2495 11.1761 14.25 8.00098C14.25 4.82547 11.6755 2.25119 8.5 2.25098Z" fill="#111827"/>
</svg>
