<svg width="32" height="32" viewBox="0 0 32 32" fill="none" xmlns="http://www.w3.org/2000/svg">
<circle cx="16" cy="16" r="16" fill="#D1D5DB"/>
<path d="M6.29297 21.707C6.68349 22.0976 7.31651 22.0976 7.70703 21.707L13 16.4141L16.293 19.707C16.6835 20.0976 17.3165 20.0976 17.707 19.707L23 14.4141L24.293 15.707C24.579 15.993 25.0091 16.0786 25.3828 15.9238C25.7564 15.769 26 15.4044 26 15V11C26 10.9437 25.9933 10.8888 25.9844 10.835C25.9772 10.7922 25.9688 10.7497 25.9561 10.708C25.9412 10.6593 25.9222 10.6126 25.9004 10.5674C25.8936 10.5532 25.8864 10.5393 25.8789 10.5254C25.8002 10.3799 25.6873 10.2558 25.5498 10.165C25.5121 10.1401 25.4727 10.1189 25.4326 10.0996C25.3874 10.0778 25.3407 10.0588 25.292 10.0439C25.2717 10.0378 25.251 10.0332 25.2305 10.0283C25.2191 10.0256 25.2078 10.0228 25.1963 10.0205C25.1859 10.0184 25.1754 10.0174 25.165 10.0156C25.1112 10.0067 25.0563 10 25 10H21C20.5956 10 20.231 10.2436 20.0762 10.6172C19.9214 10.9909 20.007 11.421 20.293 11.707L21.5859 13L17 17.5859L13.707 14.293C13.3409 13.9269 12.7619 13.9043 12.3691 14.2246L12.293 14.293L6.29297 20.293C5.90244 20.6835 5.90244 21.3165 6.29297 21.707Z" fill="#9CA3AF"/>
</svg>
