<svg width="25" height="24" viewBox="0 0 25 24" fill="none" xmlns="http://www.w3.org/2000/svg">
<path d="M12.4492 13.5834L17.1492 8.88343C17.3047 8.72788 17.4936 8.6501 17.7158 8.6501C17.9381 8.6501 18.127 8.72788 18.2825 8.88343C18.4381 9.03899 18.5158 9.22788 18.5158 9.4501C18.5158 9.67232 18.4381 9.86121 18.2825 10.0168L13.2992 15.0001C13.177 15.1223 13.0436 15.2112 12.8992 15.2668C12.7547 15.3223 12.6047 15.3501 12.4492 15.3501C12.2936 15.3501 12.1436 15.3223 11.9992 15.2668C11.8547 15.2112 11.7214 15.1223 11.5992 15.0001L6.61584 10.0168C6.46029 9.86121 6.38251 9.67232 6.38251 9.4501C6.38251 9.22788 6.46029 9.03899 6.61584 8.88343C6.7714 8.72788 6.96028 8.6501 7.18251 8.6501C7.40473 8.6501 7.59362 8.72788 7.74917 8.88343L12.4492 13.5834Z" fill="#111827"/>
</svg>
