<svg width="24" height="24" viewBox="0 0 24 24" fill="none" xmlns="http://www.w3.org/2000/svg">
<path d="M19.5982 6.32465C20.13 5.79285 20.13 4.93064 19.5982 4.39884C19.0664 3.86705 18.2042 3.86705 17.6724 4.39885L11.9984 10.0727L6.32762 4.40204C5.79581 3.87024 4.93358 3.87024 4.40177 4.40203C3.86996 4.93383 3.86996 5.79604 4.40177 6.32783L10.0726 11.9985L4.39885 17.6722C3.86705 18.204 3.86705 19.0662 4.39886 19.598C4.93067 20.1298 5.7929 20.1298 6.3247 19.598L11.9984 13.9244L17.6753 19.6011C18.2071 20.1329 19.0693 20.1329 19.6011 19.6012C20.1329 19.0694 20.133 18.2071 19.6011 17.6754L13.9242 11.9985L19.5982 6.32465Z" fill="#111827"/>
</svg>
