<svg width="22" height="22" viewBox="0 0 22 22" fill="none" xmlns="http://www.w3.org/2000/svg">
<mask id="mask0_1591_5140" style="mask-type:alpha" maskUnits="userSpaceOnUse" x="0" y="0" width="22" height="22">
<rect width="22" height="22" fill="#D9D9D9"/>
</mask>
<g mask="url(#mask0_1591_5140)">
<path d="M10.1818 19C9.05 19 7.98636 18.7875 6.99091 18.3625C5.99545 17.9375 5.12955 17.3607 4.39318 16.6321C3.65682 15.9036 3.07386 15.0468 2.64432 14.0619C2.21477 13.077 2 12.0246 2 10.9048C2 9.78492 2.21477 8.73254 2.64432 7.74762C3.07386 6.7627 3.65682 5.90595 4.39318 5.17738C5.12955 4.44881 5.99545 3.87202 6.99091 3.44702C7.98636 3.02202 9.05 2.80952 10.1818 2.80952C10.6318 2.80952 11.075 2.84325 11.5114 2.91071C11.9477 2.97817 12.3705 3.07937 12.7795 3.21429C13.0932 3.32222 13.2909 3.48075 13.3727 3.68988C13.4545 3.89901 13.4614 4.10476 13.3932 4.30714C13.325 4.50952 13.1989 4.66806 13.0148 4.78274C12.8307 4.89742 12.6227 4.90754 12.3909 4.8131C12.0364 4.69167 11.6784 4.59722 11.317 4.52976C10.9557 4.4623 10.5773 4.42857 10.1818 4.42857C8.36818 4.42857 6.82386 5.05933 5.54886 6.32083C4.27386 7.58234 3.63636 9.11032 3.63636 10.9048C3.63636 12.6992 4.27386 14.2272 5.54886 15.4887C6.82386 16.7502 8.36818 17.381 10.1818 17.381C11.9955 17.381 13.5398 16.7502 14.8148 15.4887C16.0898 14.2272 16.7273 12.6992 16.7273 10.9048C16.7273 10.6619 16.7136 10.419 16.6864 10.1762C16.6591 9.93333 16.6182 9.69722 16.5636 9.46786C16.4955 9.21151 16.5295 9.00238 16.6659 8.84048C16.8023 8.67857 16.9727 8.57738 17.1773 8.5369C17.3818 8.49643 17.583 8.52679 17.7807 8.62798C17.9784 8.72917 18.1114 8.92143 18.1795 9.20476C18.2477 9.4746 18.2955 9.75119 18.3227 10.0345C18.35 10.3179 18.3636 10.6079 18.3636 10.9048C18.3636 12.0246 18.1489 13.077 17.7193 14.0619C17.2898 15.0468 16.7068 15.9036 15.9705 16.6321C15.2341 17.3607 14.3682 17.9375 13.3727 18.3625C12.3773 18.7875 11.3136 19 10.1818 19ZM16.7273 5.2381H15.9091C15.6773 5.2381 15.483 5.16052 15.3261 5.00536C15.1693 4.8502 15.0909 4.65794 15.0909 4.42857C15.0909 4.19921 15.1693 4.00694 15.3261 3.85179C15.483 3.69663 15.6773 3.61905 15.9091 3.61905H16.7273V2.80952C16.7273 2.58016 16.8057 2.3879 16.9625 2.23274C17.1193 2.07758 17.3136 2 17.5455 2C17.7773 2 17.9716 2.07758 18.1284 2.23274C18.2852 2.3879 18.3636 2.58016 18.3636 2.80952V3.61905H19.1818C19.4136 3.61905 19.608 3.69663 19.7648 3.85179C19.9216 4.00694 20 4.19921 20 4.42857C20 4.65794 19.9216 4.8502 19.7648 5.00536C19.608 5.16052 19.4136 5.2381 19.1818 5.2381H18.3636V6.04762C18.3636 6.27698 18.2852 6.46925 18.1284 6.6244C17.9716 6.77956 17.7773 6.85714 17.5455 6.85714C17.3136 6.85714 17.1193 6.77956 16.9625 6.6244C16.8057 6.46925 16.7273 6.27698 16.7273 6.04762V5.2381ZM13.0455 10.0952C13.3864 10.0952 13.6761 9.97718 13.9148 9.74107C14.1534 9.50496 14.2727 9.21825 14.2727 8.88095C14.2727 8.54365 14.1534 8.25694 13.9148 8.02083C13.6761 7.78472 13.3864 7.66667 13.0455 7.66667C12.7045 7.66667 12.4148 7.78472 12.1761 8.02083C11.9375 8.25694 11.8182 8.54365 11.8182 8.88095C11.8182 9.21825 11.9375 9.50496 12.1761 9.74107C12.4148 9.97718 12.7045 10.0952 13.0455 10.0952ZM7.31818 10.0952C7.65909 10.0952 7.94886 9.97718 8.1875 9.74107C8.42614 9.50496 8.54545 9.21825 8.54545 8.88095C8.54545 8.54365 8.42614 8.25694 8.1875 8.02083C7.94886 7.78472 7.65909 7.66667 7.31818 7.66667C6.97727 7.66667 6.6875 7.78472 6.44886 8.02083C6.21023 8.25694 6.09091 8.54365 6.09091 8.88095C6.09091 9.21825 6.21023 9.50496 6.44886 9.74107C6.6875 9.97718 6.97727 10.0952 7.31818 10.0952ZM10.1818 15.3571C10.9727 15.3571 11.7023 15.1683 12.3705 14.7905C13.0386 14.4127 13.5773 13.9 13.9864 13.2524C14.0682 13.0905 14.0614 12.9286 13.9659 12.7667C13.8705 12.6048 13.7273 12.5238 13.5364 12.5238H6.82727C6.63636 12.5238 6.49318 12.6048 6.39773 12.7667C6.30227 12.9286 6.29545 13.0905 6.37727 13.2524C6.78636 13.9 7.32841 14.4127 8.00341 14.7905C8.67841 15.1683 9.40455 15.3571 10.1818 15.3571Z" fill="#1F2937"/>
</g>
</svg>
