<svg width="1024" height="1024" viewBox="0 0 1024 1024" fill="none" xmlns="http://www.w3.org/2000/svg">
<rect width="1024" height="1024" fill="white"/>
<path d="M658.102 155.892C696.546 155.813 732.09 176.332 751.244 209.662L887.557 446.86C906.592 479.985 906.55 520.738 887.446 553.823L758.086 777.855C742.617 804.644 716.323 823.442 685.968 829.414L377.663 890.08C354.676 894.603 331.775 891.394 311.826 882.12C350.782 817.378 436.468 675.808 464.135 651.953C493.159 626.93 520.029 614.915 553.098 606.206C586.167 597.498 620.685 595.37 654.678 599.949C688.031 604.442 720.624 617.466 749.919 634.092L756.616 622.929C727.569 605.875 698.851 585.705 678.282 559.07C657.32 531.924 641.904 500.971 632.912 467.981C623.92 434.992 621.526 400.609 625.873 366.798C630.22 332.988 641.222 300.407 658.247 270.923L651.54 267.051C634.515 296.536 611.797 322.353 584.687 343.022C557.576 363.692 526.599 378.81 493.53 387.519C460.461 396.227 425.943 398.355 391.95 393.776C358.597 389.283 328.213 376.129 298.919 359.504L292.218 370.664C321.265 387.718 347.778 408.02 368.346 434.655C389.309 461.801 404.724 492.754 413.716 525.744C422.709 558.733 432.715 581.159 421.713 625.163C412.583 661.676 328.877 804.783 290.909 869.31C275.02 856.885 262.499 839.889 255.561 819.588L153.955 522.292C143.951 493.021 147.085 460.853 162.553 434.064L291.913 210.032C311.017 176.947 346.293 156.534 384.501 156.455L658.102 155.892Z" fill="#00C983"/>
</svg>
