<svg width="112" height="124" viewBox="0 0 112 124" fill="none" xmlns="http://www.w3.org/2000/svg">
<path d="M69.423 2.24209e-05C73.3001 -0.0077905 76.8847 2.02679 78.8163 5.33159L92.5632 28.8511C94.4829 32.1356 94.4787 36.1766 92.552 39.4572L79.5063 61.6711C77.9463 64.3274 75.2946 66.1913 72.2333 66.7835L41.1414 72.7989C38.8231 73.2474 36.5136 72.9292 34.5018 72.0096C38.4304 65.5901 47.0717 51.5526 49.8618 49.1873C52.7889 46.7061 55.4987 45.5147 58.8336 44.6512C62.1686 43.7878 65.6496 43.5767 69.0778 44.0308C72.4414 44.4763 75.7283 45.7677 78.6827 47.4162L79.3581 46.3094C76.4287 44.6184 73.5325 42.6184 71.4582 39.9774C69.3442 37.2857 67.7896 34.2165 66.8827 30.9454C65.9759 27.6744 65.7344 24.2651 66.1728 20.9126C66.6113 17.5601 67.7208 14.3296 69.4377 11.406L68.7613 11.0221C67.0444 13.9456 64.7533 16.5055 62.0193 18.5551C59.2852 20.6046 56.1612 22.1036 52.8263 22.9671C49.4913 23.8306 46.0103 24.0416 42.5822 23.5875C39.2186 23.142 36.1544 21.8378 33.2001 20.1893L32.5243 21.2959C35.4537 22.9869 38.1274 24.9999 40.2017 27.6409C42.3158 30.3326 43.8704 33.4018 44.7772 36.6729C45.6841 39.944 46.6932 42.1676 45.5837 46.5309C44.6629 50.1513 36.2213 64.3412 32.3923 70.7395C30.7899 69.5074 29.5273 67.8221 28.8276 65.8092L18.5807 36.3307C17.5718 33.4283 17.8879 30.2386 19.4478 27.5823L32.4935 5.36835C34.4202 2.08775 37.9777 0.0636794 41.831 0.0558271L69.423 2.24209e-05Z" fill="#00C983"/>
<path d="M14.5088 115.509V104.068H3.5664V115.509H0V89H3.5664V100.481H14.5088V89H18.0346V115.509H14.5088Z" fill="#00C983"/>
<path d="M25.1643 107.058C25.1643 107.696 25.3939 108.36 25.8532 109.051C26.3396 109.742 26.8934 110.327 27.5149 110.805C28.6496 111.682 29.9735 112.121 31.4865 112.121C33.8912 112.121 35.85 110.978 37.363 108.692L40.4431 110.486C39.3894 112.161 38.0925 113.45 36.5524 114.353C35.0124 115.257 33.3238 115.708 31.4865 115.708C30.1086 115.708 28.7982 115.456 27.5554 114.951C26.3126 114.42 25.2183 113.689 24.2727 112.759C23.327 111.828 22.584 110.752 22.0437 109.53C21.5303 108.307 21.2737 107.018 21.2737 105.663C21.2737 104.308 21.5303 103.019 22.0437 101.796C22.584 100.547 23.327 99.4575 24.2727 98.5273C25.1913 97.5972 26.272 96.8797 27.5149 96.3747C28.7847 95.8698 30.1086 95.6173 31.4865 95.6173C32.8645 95.6173 34.1748 95.8698 35.4177 96.3747C36.6875 96.8797 37.7818 97.5972 38.7004 98.5273C40.6997 100.547 41.6994 102.886 41.6994 105.543C41.6994 106.022 41.6589 106.527 41.5778 107.058H25.1643ZM31.4865 98.8861C30.3788 98.8861 29.3386 99.1253 28.3659 99.6036C27.3933 100.082 26.6098 100.72 26.0154 101.517C25.448 102.288 25.1643 103.112 25.1643 103.989H37.8088C37.8088 103.112 37.5116 102.288 36.9172 101.517C36.3498 100.72 35.5798 100.082 34.6071 99.6036C33.6345 99.1253 32.5943 98.8861 31.4865 98.8861Z" fill="#00C983"/>
<path d="M61.1208 115.509V112.44C60.2563 113.45 59.2296 114.247 58.0408 114.831C56.879 115.416 55.6632 115.708 54.3933 115.708C52.9614 115.708 51.624 115.456 50.3811 114.951C49.1383 114.42 48.0576 113.675 47.1389 112.719C46.1933 111.762 45.4503 110.672 44.9099 109.45C44.3966 108.201 44.1399 106.885 44.1399 105.503C44.1399 104.121 44.3966 102.819 44.9099 101.597C45.4503 100.348 46.1933 99.2449 47.1389 98.2882C48.0576 97.3314 49.1383 96.6006 50.3811 96.0957C51.624 95.5642 52.9614 95.2984 54.3933 95.2984C55.7983 95.2984 57.0681 95.5774 58.2029 96.1355C59.3647 96.6936 60.3373 97.4643 61.1208 98.4476V89.0399H64.6873V115.509H61.1208ZM54.3933 98.926C53.5017 98.926 52.6507 99.0987 51.8401 99.4442C51.0296 99.7631 50.3271 100.228 49.7327 100.839C49.1383 101.451 48.6655 102.168 48.3142 102.992C47.963 103.789 47.7874 104.626 47.7874 105.503C47.7874 107.284 48.4358 108.839 49.7327 110.167C50.3271 110.779 51.0296 111.257 51.8401 111.603C52.6507 111.948 53.5017 112.121 54.3933 112.121C55.2849 112.121 56.136 111.948 56.9465 111.603C57.7841 111.257 58.5001 110.779 59.0945 110.167C60.3914 108.839 61.0398 107.284 61.0398 105.503C61.0398 104.626 60.8642 103.789 60.5129 102.992C60.1617 102.168 59.6889 101.451 59.0945 100.839C58.5001 100.228 57.7841 99.7631 56.9465 99.4442C56.136 99.0987 55.2849 98.926 54.3933 98.926Z" fill="#00C983"/>
<path d="M78.1293 124C74.9142 124 72.1313 122.591 69.7807 119.774L72.9824 117.901C74.4413 119.575 76.157 120.412 78.1293 120.412C79.0209 120.412 79.872 120.24 80.6825 119.894C81.4931 119.549 82.1956 119.07 82.79 118.459C83.3844 117.848 83.8437 117.144 84.1679 116.346C84.5191 115.549 84.6948 114.712 84.6948 113.835V112.878C82.8575 114.898 80.6555 115.908 78.0888 115.908C76.7109 115.908 75.387 115.629 74.1171 115.071C72.8743 114.486 71.7936 113.702 70.8749 112.719C69.9563 111.735 69.2268 110.619 68.6865 109.37C68.1731 108.121 67.9165 106.832 67.9165 105.503C67.9165 104.148 68.1731 102.872 68.6865 101.677C69.2268 100.454 69.9698 99.3778 70.9155 98.4476C71.8611 97.544 72.9418 96.8398 74.1577 96.3349C75.4005 95.8299 76.7109 95.5774 78.0888 95.5774C79.5748 95.5774 80.8987 95.8964 82.0605 96.5342C83.2223 97.172 84.1004 97.8895 84.6948 98.6868V95.9362H88.3422V113.835C88.3422 115.217 88.072 116.519 87.5317 117.741C87.0183 118.964 86.2888 120.054 85.3432 121.01C84.4246 121.94 83.3303 122.671 82.0605 123.203C80.8176 123.734 79.5073 124 78.1293 124ZM78.0888 99.205C77.1972 99.205 76.3461 99.3778 75.5356 99.7232C74.725 100.042 74.0226 100.507 73.4282 101.118C72.8338 101.73 72.3609 102.447 72.0097 103.271C71.6585 104.068 71.4829 104.905 71.4829 105.782C71.4829 106.659 71.6585 107.51 72.0097 108.334C72.3609 109.131 72.8338 109.822 73.4282 110.407C74.0226 110.991 74.725 111.456 75.5356 111.802C76.3461 112.147 77.1972 112.32 78.0888 112.32C78.9804 112.32 79.8315 112.147 80.642 111.802C81.4526 111.456 82.1551 110.991 82.7495 110.407C83.3439 109.822 83.8032 109.131 84.1274 108.334C84.4786 107.51 84.6542 106.659 84.6542 105.782C84.6542 104.905 84.4786 104.068 84.1274 103.271C83.8032 102.447 83.3439 101.73 82.7495 101.118C82.1551 100.507 81.4526 100.042 80.642 99.7232C79.8315 99.3778 78.9804 99.205 78.0888 99.205Z" fill="#00C983"/>
<path d="M95.4649 107.058C95.4649 107.696 95.6945 108.36 96.1538 109.051C96.6402 109.742 97.194 110.327 97.8155 110.805C98.9502 111.682 100.274 112.121 101.787 112.121C104.192 112.121 106.151 110.978 107.664 108.692L110.744 110.486C109.69 112.161 108.393 113.45 106.853 114.353C105.313 115.257 103.624 115.708 101.787 115.708C100.409 115.708 99.0988 115.456 97.856 114.951C96.6131 114.42 95.5189 113.689 94.5733 112.759C93.6276 111.828 92.8846 110.752 92.3443 109.53C91.8309 108.307 91.5743 107.018 91.5743 105.663C91.5743 104.308 91.8309 103.019 92.3443 101.796C92.8846 100.547 93.6276 99.4575 94.5733 98.5273C95.4919 97.5972 96.5726 96.8797 97.8155 96.3747C99.0853 95.8698 100.409 95.6173 101.787 95.6173C103.165 95.6173 104.475 95.8698 105.718 96.3747C106.988 96.8797 108.082 97.5972 109.001 98.5273C111 100.547 112 102.886 112 105.543C112 106.022 111.959 106.527 111.878 107.058H95.4649ZM101.787 98.8861C100.679 98.8861 99.6392 99.1253 98.6665 99.6036C97.6939 100.082 96.9103 100.72 96.3159 101.517C95.7486 102.288 95.4649 103.112 95.4649 103.989H108.109C108.109 103.112 107.812 102.288 107.218 101.517C106.65 100.72 105.88 100.082 104.908 99.6036C103.935 99.1253 102.895 98.8861 101.787 98.8861Z" fill="#00C983"/>
</svg>
