<svg width="32" height="32" viewBox="0 0 32 32" fill="none" xmlns="http://www.w3.org/2000/svg">
<rect x="9" y="10" width="14" height="14" fill="#191A20" fill-opacity="0.42"/>
<path d="M16 17.68L19.48 21.16C19.7 21.38 19.98 21.49 20.32 21.49C20.66 21.49 20.94 21.38 21.16 21.16C21.38 20.94 21.49 20.66 21.49 20.32C21.49 19.98 21.38 19.7 21.16 19.48L17.68 16L21.16 12.52C21.38 12.3 21.49 12.02 21.49 11.68C21.49 11.34 21.38 11.06 21.16 10.84C20.94 10.62 20.66 10.51 20.32 10.51C19.98 10.51 19.7 10.62 19.48 10.84L16 14.32L12.52 10.84C12.3 10.62 12.02 10.51 11.68 10.51C11.34 10.51 11.06 10.62 10.84 10.84C10.62 11.06 10.51 11.34 10.51 11.68C10.51 12.02 10.62 12.3 10.84 12.52L14.32 16L10.84 19.48C10.62 19.7 10.51 19.98 10.51 20.32C10.51 20.66 10.62 20.94 10.84 21.16C11.06 21.38 11.34 21.49 11.68 21.49C12.02 21.49 12.3 21.38 12.52 21.16L16 17.68ZM16 28C14.34 28 12.78 27.685 11.32 27.055C9.86 26.425 8.59 25.57 7.51 24.49C6.43 23.41 5.575 22.14 4.945 20.68C4.315 19.22 4 17.66 4 16C4 14.34 4.315 12.78 4.945 11.32C5.575 9.86 6.43 8.59 7.51 7.51C8.59 6.43 9.86 5.575 11.32 4.945C12.78 4.315 14.34 4 16 4C17.66 4 19.22 4.315 20.68 4.945C22.14 5.575 23.41 6.43 24.49 7.51C25.57 8.59 26.425 9.86 27.055 11.32C27.685 12.78 28 14.34 28 16C28 17.66 27.685 19.22 27.055 20.68C26.425 22.14 25.57 23.41 24.49 24.49C23.41 25.57 22.14 26.425 20.68 27.055C19.22 27.685 17.66 28 16 28Z" fill="white"/>
</svg>
