<svg width="18" height="18" viewBox="0 0 18 18" fill="none" xmlns="http://www.w3.org/2000/svg">
<path d="M16.2 9C16.2 5.02355 12.9764 1.8 9 1.8C5.02355 1.8 1.8 5.02355 1.8 9C1.8 12.9764 5.02355 16.2 9 16.2C12.9764 16.2 16.2 12.9764 16.2 9ZM9.00879 11.7C9.50583 11.7 9.90876 12.103 9.90879 12.6V12.6088C9.90879 13.1058 9.50585 13.5088 9.00879 13.5088H9C8.50294 13.5088 8.1 13.1058 8.1 12.6088V12.6C8.10003 12.103 8.50296 11.7 9 11.7H9.00879ZM8.1 9V5.4C8.10003 4.90297 8.50296 4.5 9 4.5C9.49704 4.5 9.89997 4.90297 9.9 5.4V9C9.9 9.49706 9.49706 9.9 9 9.9C8.50294 9.9 8.1 9.49706 8.1 9ZM18 9C18 13.9706 13.9706 18 9 18C4.02944 18 0 13.9706 0 9C0 4.02944 4.02944 0 9 0C13.9706 0 18 4.02944 18 9Z" fill="#6B7280"/>
</svg>
