<svg width="22" height="22" viewBox="0 0 22 22" fill="none" xmlns="http://www.w3.org/2000/svg">
<mask id="mask0_1591_5147" style="mask-type:alpha" maskUnits="userSpaceOnUse" x="0" y="0" width="22" height="22">
<rect width="22" height="22" fill="#D9D9D9"/>
</mask>
<g mask="url(#mask0_1591_5147)">
<path d="M5.36303 14.4741L8.35536 11.5081C8.52395 11.341 8.72063 11.2609 8.9454 11.2679C9.17018 11.2748 9.36686 11.3619 9.53544 11.529C9.68997 11.6961 9.76724 11.891 9.76724 12.1138C9.76724 12.3366 9.68997 12.5316 9.53544 12.6987L5.97414 16.2495C5.80556 16.4166 5.60888 16.5002 5.3841 16.5002C5.15932 16.5002 4.96264 16.4166 4.79406 16.2495L2.9818 14.4532C2.82727 14.3 2.75 14.1051 2.75 13.8684C2.75 13.6316 2.82727 13.4367 2.9818 13.2835C3.13633 13.1303 3.33301 13.0537 3.57184 13.0537C3.81066 13.0537 4.00734 13.1303 4.16188 13.2835L5.36303 14.4741ZM5.36303 7.79013L8.35536 4.82412C8.52395 4.65702 8.72063 4.57695 8.9454 4.58391C9.17018 4.59088 9.36686 4.67791 9.53544 4.84501C9.68997 5.01211 9.76724 5.20705 9.76724 5.42985C9.76724 5.65265 9.68997 5.8476 9.53544 6.0147L5.97414 9.56555C5.80556 9.73265 5.60888 9.8162 5.3841 9.8162C5.15932 9.8162 4.96264 9.73265 4.79406 9.56555L2.9818 7.76924C2.82727 7.61607 2.75 7.42112 2.75 7.18439C2.75 6.94767 2.82727 6.75272 2.9818 6.59955C3.13633 6.44637 3.33301 6.36978 3.57184 6.36978C3.81066 6.36978 4.00734 6.44637 4.16188 6.59955L5.36303 7.79013ZM12.5067 15.1634C12.2679 15.1634 12.0677 15.0833 11.9061 14.9232C11.7446 14.763 11.6638 14.5646 11.6638 14.3279C11.6638 14.0912 11.7446 13.8927 11.9061 13.7326C12.0677 13.5724 12.2679 13.4924 12.5067 13.4924H18.4071C18.6459 13.4924 18.8461 13.5724 19.0077 13.7326C19.1692 13.8927 19.25 14.0912 19.25 14.3279C19.25 14.5646 19.1692 14.763 19.0077 14.9232C18.8461 15.0833 18.6459 15.1634 18.4071 15.1634H12.5067ZM12.5067 8.47941C12.2679 8.47941 12.0677 8.39934 11.9061 8.23921C11.7446 8.07907 11.6638 7.88064 11.6638 7.64391C11.6638 7.40719 11.7446 7.20876 11.9061 7.04862C12.0677 6.88849 12.2679 6.80842 12.5067 6.80842H18.4071C18.6459 6.80842 18.8461 6.88849 19.0077 7.04862C19.1692 7.20876 19.25 7.40719 19.25 7.64391C19.25 7.88064 19.1692 8.07907 19.0077 8.23921C18.8461 8.39934 18.6459 8.47941 18.4071 8.47941H12.5067Z" fill="#1F2937"/>
</g>
</svg>
