<svg width="66" height="68" viewBox="0 0 66 68" fill="none" xmlns="http://www.w3.org/2000/svg">
<g filter="url(#filter0_d_1502_10974)">
<rect x="20" y="16" width="28" height="28" rx="14" fill="white" fill-opacity="0.08" shape-rendering="crispEdges"/>
<rect x="20.5" y="16.5" width="27" height="27" rx="13.5" stroke="white" stroke-opacity="0.08" shape-rendering="crispEdges"/>
<path d="M37.5225 25.2537C37.8607 24.9156 38.4098 24.9156 38.748 25.2537C39.0862 25.5917 39.0861 26.1402 38.748 26.4783L35.2227 30.0007L38.748 33.5232C39.0862 33.8612 39.0861 34.4097 38.748 34.7478C38.4098 35.0859 37.8607 35.0859 37.5225 34.7478L33.998 31.2244L30.4795 34.7419C30.1413 35.0799 29.5931 35.0798 29.2549 34.7419C28.9166 34.4039 28.9166 33.8554 29.2549 33.5173L32.7725 30.0007L29.2549 26.4841C28.9166 26.1461 28.9166 25.5976 29.2549 25.2595C29.5931 24.9219 30.1414 24.9218 30.4795 25.2595L33.998 28.7761L37.5225 25.2537Z" fill="#9CA3AF"/>
</g>
<defs>
<filter id="filter0_d_1502_10974" x="0" y="0" width="68" height="68" filterUnits="userSpaceOnUse" color-interpolation-filters="sRGB">
<feFlood flood-opacity="0" result="BackgroundImageFix"/>
<feColorMatrix in="SourceAlpha" type="matrix" values="0 0 0 0 0 0 0 0 0 0 0 0 0 0 0 0 0 0 127 0" result="hardAlpha"/>
<feOffset dy="4"/>
<feGaussianBlur stdDeviation="10"/>
<feComposite in2="hardAlpha" operator="out"/>
<feColorMatrix type="matrix" values="0 0 0 0 0 0 0 0 0 0 0 0 0 0 0 0 0 0 0.06 0"/>
<feBlend mode="normal" in2="BackgroundImageFix" result="effect1_dropShadow_1502_10974"/>
<feBlend mode="normal" in="SourceGraphic" in2="effect1_dropShadow_1502_10974" result="shape"/>
</filter>
</defs>
</svg>
