<svg width="28" height="28" viewBox="0 0 28 28" fill="none" xmlns="http://www.w3.org/2000/svg">
<rect width="28" height="28" rx="14" fill="#F3F4F6"/>
<path d="M17.5225 9.25403C17.8607 8.91603 18.4088 8.91616 18.7471 9.25403C19.0853 9.59209 19.0853 10.1406 18.7471 10.4786L15.2227 14.0001L18.7471 17.5236C19.0853 17.8616 19.0853 18.4101 18.7471 18.7482C18.4088 19.0858 17.8606 19.086 17.5225 18.7482L13.9971 15.2247L10.4795 18.7413C10.1412 19.0794 9.59216 19.0794 9.25391 18.7413C8.91619 18.4033 8.91609 17.8556 9.25391 17.5177L12.7725 14.0011L9.25391 10.4845C8.91579 10.1465 8.91586 9.59794 9.25391 9.25989C9.59216 8.92182 10.1412 8.92182 10.4795 9.25989L13.9971 12.7765L17.5225 9.25403Z" fill="#9CA3AF"/>
</svg>
