<svg width="20" height="20" viewBox="0 0 20 20" fill="none" xmlns="http://www.w3.org/2000/svg">
<path d="M20 10C20 15.5228 15.5228 20 10 20C4.47715 20 0 15.5228 0 10C0 4.47715 4.47715 0 10 0C15.5228 0 20 4.47715 20 10ZM2.5 10C2.5 14.1421 5.85786 17.5 10 17.5C14.1421 17.5 17.5 14.1421 17.5 10C17.5 5.85786 14.1421 2.5 10 2.5C5.85786 2.5 2.5 5.85786 2.5 10Z" fill="#8A66FF" fill-opacity="0.1"/>
<path d="M18.0112 13.519C18.6432 13.7967 18.9371 14.5394 18.5828 15.1319C17.9906 16.1222 17.2298 17.0054 16.3319 17.74C15.1104 18.7392 13.6698 19.4352 12.1279 19.771C10.5859 20.1068 8.98636 20.0729 7.46001 19.672C5.93366 19.2712 4.52385 18.5148 3.34584 17.4647C2.16783 16.4146 1.25507 15.1006 0.682184 13.6302C0.109302 12.1597 -0.107436 10.5746 0.0496918 9.00433C0.20682 7.43406 0.733351 5.92328 1.58624 4.5955C2.21324 3.61937 3.00354 2.76253 3.91961 2.06092C4.46769 1.64116 5.23911 1.84805 5.58726 2.44419C5.93542 3.04033 5.72576 3.79859 5.19564 4.24082C4.61167 4.72797 4.1033 5.3027 3.68968 5.94663C3.05001 6.94246 2.65511 8.07555 2.53727 9.25324C2.41942 10.4309 2.58198 11.6198 3.01164 12.7226C3.4413 13.8255 4.12587 14.811 5.00938 15.5985C5.89289 16.3861 6.95025 16.9534 8.09501 17.254C9.23977 17.5547 10.4394 17.5801 11.5959 17.3282C12.7524 17.0764 13.8328 16.5544 14.7489 15.805C15.3413 15.3204 15.854 14.7496 16.2712 14.1137C16.6498 13.5365 17.3791 13.2414 18.0112 13.519Z" fill="#8A66FF"/>
</svg>
