<svg width="30" height="30" viewBox="0 0 30 30" fill="none" xmlns="http://www.w3.org/2000/svg">
<path d="M13.3615 2C14.0896 0.666667 15.9108 0.666667 16.6389 2L29.7444 26C30.4722 27.3333 29.5618 29 28.1057 29H1.89474C0.438653 29 -0.471792 27.3333 0.256073 26L13.3615 2ZM15.0002 21.7998C14.1718 21.7998 13.5003 22.4714 13.5002 23.2998C13.5002 24.1282 14.1718 24.7998 15.0002 24.7998C15.8286 24.7998 16.5002 24.1282 16.5002 23.2998C16.5002 22.4714 15.8286 21.7998 15.0002 21.7998ZM15.0002 11C14.1718 11 13.5002 11.6716 13.5002 12.5V17.2998C13.5002 18.1282 14.1718 18.7998 15.0002 18.7998C15.8286 18.7998 16.5002 18.1282 16.5002 17.2998V12.5C16.5002 11.6716 15.8286 11 15.0002 11Z" fill="#D1D5DB"/>
</svg>
