<svg width="49" height="49" viewBox="0 0 49 49" fill="none" xmlns="http://www.w3.org/2000/svg">
<circle opacity="0.3" cx="24.5" cy="24" r="24" fill="#FBCB5E"/>
<circle cx="24.5" cy="24" r="17.5" fill="#FBCB5E"/>
<path d="M20.5 31.5C20.9444 30.8333 22.3667 29.5 24.5 29.5C26.6333 29.5 28.0556 30.8333 28.5 31.5" stroke="#111827" stroke-width="2.6" stroke-linecap="round"/>
<path d="M19.5898 19.3855C19.9804 18.995 20.6134 18.995 21.0039 19.3855C21.3944 19.776 21.3944 20.409 21.0039 20.7996L20.1104 21.6921L21.0039 22.5857C21.3944 22.9762 21.3944 23.6092 21.0039 23.9998C20.6134 24.3903 19.9804 24.3903 19.5898 23.9998L18.6963 23.1062L17.8037 23.9998C17.4132 24.3903 16.7802 24.3903 16.3896 23.9998C15.9991 23.6092 15.9991 22.9762 16.3896 22.5857L17.2822 21.6921L16.3896 20.7996C15.9991 20.409 15.9991 19.776 16.3896 19.3855C16.7802 18.995 17.4132 18.995 17.8037 19.3855L18.6963 20.2781L19.5898 19.3855Z" fill="#111827"/>
<path d="M31.1963 19.486C31.5868 19.0955 32.2198 19.0955 32.6104 19.486C33.0008 19.8766 33.0008 20.5096 32.6104 20.9001L31.7168 21.7927L32.6104 22.6862C33.0008 23.0767 33.0008 23.7098 32.6104 24.1003C32.2199 24.4908 31.5868 24.4907 31.1963 24.1003L30.3027 23.2067L29.4102 24.1003C29.0197 24.4908 28.3866 24.4907 27.9961 24.1003C27.6056 23.7098 27.6056 23.0767 27.9961 22.6862L28.8887 21.7927L27.9961 20.9001C27.6056 20.5096 27.6056 19.8765 27.9961 19.486C28.3866 19.0955 29.0196 19.0955 29.4102 19.486L30.3027 20.3786L31.1963 19.486Z" fill="#111827"/>
</svg>
