<svg width="31" height="30" viewBox="0 0 31 30" fill="none" xmlns="http://www.w3.org/2000/svg">
<path d="M15.0005 0C23.2845 0.000263881 30.0005 6.71589 30.0005 15C30.0005 23.2841 23.2845 29.9997 15.0005 30C6.71622 30 -0.000488281 23.2843 -0.000488281 15C-0.000488281 6.71573 6.71622 0 15.0005 0ZM15.4487 18.9004C14.6204 18.9004 13.9489 19.5721 13.9487 20.4004C13.949 21.2286 14.6205 21.9004 15.4487 21.9004C16.277 21.9004 16.9485 21.2286 16.9487 20.4004C16.9486 19.5721 16.2771 18.9004 15.4487 18.9004ZM15.4487 8.10059C14.6203 8.10059 13.9487 8.77216 13.9487 9.60059V14.4004C13.949 15.2286 14.6205 15.9004 15.4487 15.9004C16.277 15.9004 16.9485 15.2286 16.9487 14.4004V9.60059C16.9487 8.77216 16.2772 8.10059 15.4487 8.10059Z" fill="#D1D5DB"/>
</svg>
