<svg width="17" height="16" viewBox="0 0 17 16" fill="none" xmlns="http://www.w3.org/2000/svg">
<path d="M9.84277 9.66895C10.2293 9.66909 10.5539 9.9923 10.4189 10.3545C10.1331 11.1211 9.38176 11.6689 8.5 11.6689C7.61841 11.6688 6.86682 11.121 6.58105 10.3545C6.44633 9.99235 6.77175 9.66902 7.1582 9.66895H9.84277Z" fill="#111827"/>
<path d="M4.91797 5.56641C5.03012 5.3424 5.30325 5.25124 5.52734 5.36328L6.88867 6.04492C7.04198 6.12188 7.13958 6.27863 7.13965 6.4502C7.13946 6.62181 7.04214 6.77961 6.88867 6.85645L5.52734 7.53711C5.30334 7.64898 5.03014 7.5578 4.91797 7.33398C4.806 7.10994 4.89718 6.83775 5.12109 6.72559L5.6709 6.4502L5.12109 6.17578C4.89706 6.06376 4.80619 5.7905 4.91797 5.56641Z" fill="#111827"/>
<path d="M11.4746 5.36328C11.6986 5.25165 11.9709 5.34262 12.083 5.56641C12.1948 5.7905 12.1039 6.06376 11.8799 6.17578L11.3311 6.4502L11.8799 6.72559C12.1039 6.83773 12.195 7.10989 12.083 7.33398C11.9709 7.55768 11.6985 7.64869 11.4746 7.53711L10.1133 6.85645C9.95969 6.77965 9.86249 6.62189 9.8623 6.4502C9.86238 6.27846 9.95971 6.1218 10.1133 6.04492L11.4746 5.36328Z" fill="#111827"/>
<path fill-rule="evenodd" clip-rule="evenodd" d="M8.5 0.950195C12.3934 0.950407 15.5498 4.1075 15.5498 8.00098C15.5493 11.894 12.3931 15.0506 8.5 15.0508C4.60669 15.0508 1.44969 11.8942 1.44922 8.00098C1.44922 4.10737 4.60639 0.950195 8.5 0.950195ZM8.5 2.25098C5.32436 2.25098 2.75 4.82534 2.75 8.00098C2.75048 11.1762 5.32466 13.751 8.5 13.751C11.6752 13.7508 14.2495 11.1761 14.25 8.00098C14.25 4.82547 11.6755 2.25119 8.5 2.25098Z" fill="#111827"/>
</svg>
