<svg width="17" height="16" viewBox="0 0 17 16" fill="none" xmlns="http://www.w3.org/2000/svg">
<path d="M9.82422 9.56055C10.0049 9.28976 10.3706 9.2162 10.6416 9.39648C10.9126 9.57717 10.9862 9.94377 10.8057 10.2148C10.5257 10.6347 9.71529 11.3846 8.5 11.3848C7.28438 11.3848 6.47327 10.6347 6.19336 10.2148C6.0128 9.94377 6.0864 9.57717 6.35742 9.39648C6.62849 9.21596 6.99511 9.28954 7.17578 9.56055C7.29962 9.74601 7.77989 10.2051 8.5 10.2051C9.22007 10.2049 9.70052 9.74591 9.82422 9.56055Z" fill="#111827"/>
<path d="M5.77637 5.34961C6.2775 5.34961 6.68437 5.75575 6.68457 6.25684C6.68457 6.75809 6.27762 7.16504 5.77637 7.16504C5.27529 7.16484 4.86914 6.75796 4.86914 6.25684C4.86934 5.75588 5.27541 5.34981 5.77637 5.34961Z" fill="#111827"/>
<path d="M11.2227 5.34961C11.7238 5.34961 12.1307 5.75575 12.1309 6.25684C12.1309 6.75809 11.7239 7.16504 11.2227 7.16504C10.7216 7.16484 10.3154 6.75796 10.3154 6.25684C10.3156 5.75588 10.7217 5.34981 11.2227 5.34961Z" fill="#111827"/>
<path fill-rule="evenodd" clip-rule="evenodd" d="M8.5 0.950195C12.3934 0.950407 15.5498 4.1075 15.5498 8.00098C15.5493 11.894 12.3931 15.0506 8.5 15.0508C4.60669 15.0508 1.44969 11.8942 1.44922 8.00098C1.44922 4.10737 4.60639 0.950195 8.5 0.950195ZM8.5 2.25098C5.32436 2.25098 2.75 4.82534 2.75 8.00098C2.75048 11.1762 5.32466 13.751 8.5 13.751C11.6752 13.7508 14.2495 11.1761 14.25 8.00098C14.25 4.82547 11.6755 2.25119 8.5 2.25098Z" fill="#111827"/>
</svg>
