<svg width="24" height="24" viewBox="0 0 24 24" fill="none" xmlns="http://www.w3.org/2000/svg">
<path d="M12 13.5834L16.7 8.88343C16.8556 8.72788 17.0445 8.6501 17.2667 8.6501C17.4889 8.6501 17.6778 8.72788 17.8333 8.88343C17.9889 9.03899 18.0667 9.22788 18.0667 9.4501C18.0667 9.67232 17.9889 9.86121 17.8333 10.0168L12.85 15.0001C12.7278 15.1223 12.5945 15.2112 12.45 15.2668C12.3056 15.3223 12.1556 15.3501 12 15.3501C11.8445 15.3501 11.6945 15.3223 11.55 15.2668C11.4056 15.2112 11.2722 15.1223 11.15 15.0001L6.16668 10.0168C6.01113 9.86121 5.93335 9.67232 5.93335 9.4501C5.93335 9.22788 6.01113 9.03899 6.16668 8.88343C6.32224 8.72788 6.51113 8.6501 6.73335 8.6501C6.95557 8.6501 7.14446 8.72788 7.30002 8.88343L12 13.5834Z" fill="#111827"/>
</svg>
