<svg width="52" height="52" viewBox="0 0 52 52" fill="none" xmlns="http://www.w3.org/2000/svg">
<rect width="52" height="52" rx="26" fill="#0EBC80"/>
<path d="M26 17C26.6716 17 27.2156 17.5443 27.2158 18.2158V24.7842H33.7842C34.4557 24.7844 35 25.3284 35 26C35 26.6716 34.4557 27.2156 33.7842 27.2158H27.2158V33.7842C27.2156 34.4557 26.6716 35 26 35C25.3284 35 24.7844 34.4557 24.7842 33.7842V27.2158H18.2158C17.5443 27.2156 17 26.6716 17 26C17 25.3284 17.5443 24.7844 18.2158 24.7842H24.7842V18.2158C24.7844 17.5443 25.3284 17 26 17Z" fill="white"/>
</svg>
