<svg width="32" height="32" viewBox="0 0 32 32" fill="none" xmlns="http://www.w3.org/2000/svg">
<rect width="32" height="32" rx="16" fill="#0EBC80"/>
<path d="M15.9958 10C16.4692 10 16.853 10.3838 16.853 10.8571V15.1479H21.1429C21.6162 15.1479 22 15.5316 22 16.005C22 16.4784 21.6162 16.8622 21.1429 16.8622H16.853V21.1429C16.853 21.6162 16.4692 22 15.9958 22C15.5224 22 15.1387 21.6162 15.1387 21.1429V16.8622H10.8571C10.3838 16.8622 10 16.4784 10 16.005C10 15.5316 10.3838 15.1479 10.8571 15.1479H15.1387V10.8571C15.1387 10.3838 15.5224 10 15.9958 10Z" fill="white"/>
</svg>
