<svg width="28" height="28" viewBox="0 0 28 28" fill="none" xmlns="http://www.w3.org/2000/svg">
<path d="M20.3008 13.9971C20.3008 10.5177 17.4803 7.69737 14.001 7.69727C10.5216 7.69727 7.70117 10.5177 7.70117 13.9971C7.70128 17.4764 10.5216 20.2969 14.001 20.2969V25.1973L13.4248 25.1826C7.69778 24.8925 3.10574 20.3002 2.81543 14.5732L2.80078 13.9971C2.80078 7.81148 7.81539 2.79688 14.001 2.79688L14.5771 2.81152C20.4949 3.1115 25.2012 8.00479 25.2012 13.9971L25.1865 14.5732C24.8866 20.4909 19.9932 25.1972 14.001 25.1973V20.2969C17.4802 20.2968 20.3007 17.4763 20.3008 13.9971Z" fill="#0EBC80"/>
</svg>
