<svg width="40" height="40" viewBox="0 0 40 40" fill="none" xmlns="http://www.w3.org/2000/svg">
<path d="M32.696 10.7463C33.0894 11.134 33.0939 11.7671 32.7062 12.1604L25.525 19.4462C25.1355 19.8413 25.1422 20.4781 25.5399 20.865L33.4375 28.5469C33.8334 28.932 33.8421 29.5651 33.4571 29.961L29.5723 33.955C29.1872 34.3509 28.5541 34.3597 28.1582 33.9746L20.2151 26.2484C19.8211 25.8651 19.1914 25.8718 18.8056 26.2634L11.3309 33.8491C10.9432 34.2425 10.31 34.2472 9.9166 33.8594L5.94841 29.948C5.55512 29.5603 5.55051 28.9273 5.93812 28.5339L13.3688 20.9933C13.7582 20.5981 13.7514 19.9614 13.3538 19.5746L6.33004 12.7422C5.93418 12.3571 5.92542 11.724 6.31048 11.3281L10.1953 7.33407C10.5804 6.93815 11.2135 6.92939 11.6094 7.31451L18.6785 14.1911C19.0726 14.5744 19.7021 14.5678 20.088 14.1762L27.3136 6.84506C27.7013 6.4517 28.3345 6.44713 28.7278 6.83484L32.696 10.7463Z" fill="#D1D5DB"/>
</svg>
