<svg width="17" height="16" viewBox="0 0 17 16" fill="none" xmlns="http://www.w3.org/2000/svg">
<path d="M10.3145 9.75195C10.6403 9.75195 10.9043 10.016 10.9043 10.3418C10.9042 10.6675 10.6402 10.9316 10.3145 10.9316H6.68457C6.35881 10.9316 6.09482 10.6675 6.09473 10.3418C6.09473 10.016 6.35876 9.75195 6.68457 9.75195H10.3145Z" fill="#111827"/>
<path d="M5.77637 5.34961C6.27747 5.34961 6.68433 5.75579 6.68457 6.25684C6.68457 6.75809 6.27762 7.16504 5.77637 7.16504C5.27518 7.16496 4.86914 6.75804 4.86914 6.25684C4.86938 5.75583 5.27533 5.34968 5.77637 5.34961Z" fill="#111827"/>
<path d="M11.2236 5.34961C11.7247 5.34983 12.1309 5.7567 12.1309 6.25781C12.1307 6.75878 11.7246 7.16482 11.2236 7.16504C10.7225 7.16504 10.3156 6.75892 10.3154 6.25781C10.3154 5.75656 10.7224 5.34961 11.2236 5.34961Z" fill="#111827"/>
<path fill-rule="evenodd" clip-rule="evenodd" d="M8.5 0.949219C12.3934 0.94943 15.5498 4.1075 15.5498 8.00098C15.5493 11.894 12.3931 15.0506 8.5 15.0508C4.60669 15.0508 1.44969 11.8942 1.44922 8.00098C1.44922 4.10737 4.60639 0.949219 8.5 0.949219ZM8.5 2.25098C5.32436 2.25098 2.75 4.82534 2.75 8.00098C2.75048 11.1762 5.32466 13.751 8.5 13.751C11.6752 13.7508 14.2495 11.1761 14.25 8.00098C14.25 4.82547 11.6755 2.25119 8.5 2.25098Z" fill="#111827"/>
</svg>
