<svg width="24" height="24" viewBox="0 0 24 24" fill="none" xmlns="http://www.w3.org/2000/svg">
<rect width="24" height="24" rx="12" fill="#374151"/>
<path d="M5.4375 8.69419C5.4375 8.34304 5.62168 8.01762 5.92273 7.83686L11.616 4.41838C11.9398 4.22396 12.3455 4.22855 12.6648 4.43024L18.4271 8.06981C18.7171 8.25304 18.893 8.57218 18.893 8.91528V15.6679C18.893 16.0272 18.7002 16.359 18.388 16.5368L12.5791 19.8454C12.2688 20.0221 11.8878 20.02 11.5795 19.8397L5.93282 16.5387C5.62606 16.3594 5.4375 16.0307 5.4375 15.6754V8.69419Z" fill="#B9BEC5"/>
<mask id="mask0_4659_40121" style="mask-type:alpha" maskUnits="userSpaceOnUse" x="5" y="4" width="14" height="16">
<path d="M5.4375 8.69443C5.4375 8.34329 5.62168 8.01787 5.92273 7.83711L11.616 4.41862C11.9398 4.22421 12.3455 4.2288 12.6648 4.43048L18.4271 8.07006C18.7171 8.25328 18.893 8.57243 18.893 8.91553V15.6682C18.893 16.0275 18.7003 16.3592 18.3881 16.5371L12.5917 19.8398C12.2818 20.0163 11.9014 20.0145 11.5933 19.835L5.93418 16.5387C5.62665 16.3596 5.4375 16.0305 5.4375 15.6746V8.69443Z" fill="#B9BEC5"/>
</mask>
<g mask="url(#mask0_4659_40121)">
<path d="M12.0791 12.1354L18.894 8.19238V16.3731L12.1486 20.3027L12.0791 12.1354Z" fill="#82888E"/>
<path d="M8.93359 15.0764C8.93358 14.9247 9.09623 14.8281 9.22949 14.9006L10.5889 15.6409C10.6545 15.6766 10.6949 15.7459 10.6934 15.8206L10.6494 17.8176C10.6461 17.9701 10.4802 18.0634 10.3486 17.9866L9.0332 17.2161C8.97197 17.1802 8.93364 17.1142 8.93359 17.0432V15.0764ZM6.41992 13.5823C6.42013 13.4284 6.58648 13.3324 6.71973 13.4094L7.82617 14.0491C7.8877 14.0848 7.92568 14.1508 7.92578 14.2219V16.1116C7.92551 16.266 7.75724 16.3617 7.62402 16.2834L6.51855 15.634C6.45741 15.5981 6.41992 15.5321 6.41992 15.4612V13.5823ZM8.94336 11.8557C8.94363 11.7055 9.10327 11.6091 9.23633 11.679L10.6318 12.4114C10.6976 12.446 10.7383 12.5148 10.7383 12.5891V14.5461C10.7382 14.6991 10.5737 14.7951 10.4404 14.72L9.04492 13.9309C8.98219 13.8954 8.94336 13.8292 8.94336 13.7571V11.8557ZM6.4375 10.5042C6.43771 10.3503 6.60407 10.2543 6.7373 10.3313L7.84375 10.9709C7.9053 11.0067 7.94326 11.0726 7.94336 11.1438V13.0715C7.94309 13.2249 7.77678 13.3206 7.64355 13.2444L6.53809 12.6125C6.4758 12.5769 6.4375 12.5105 6.4375 12.4387V10.5042Z" fill="#EBF0F8"/>
<path d="M8.93359 15.0764C8.93358 14.9247 9.09623 14.8281 9.22949 14.9006L10.5889 15.6409C10.6545 15.6766 10.6949 15.7459 10.6934 15.8206L10.6494 17.8176C10.6461 17.9701 10.4802 18.0634 10.3486 17.9866L9.0332 17.2161C8.97197 17.1802 8.93364 17.1142 8.93359 17.0432V15.0764ZM6.41992 13.5823C6.42013 13.4284 6.58648 13.3324 6.71973 13.4094L7.82617 14.0491C7.8877 14.0848 7.92568 14.1508 7.92578 14.2219V16.1116C7.92551 16.266 7.75724 16.3617 7.62402 16.2834L6.51855 15.634C6.45741 15.5981 6.41992 15.5321 6.41992 15.4612V13.5823ZM8.94336 11.8557C8.94363 11.7055 9.10327 11.6091 9.23633 11.679L10.6318 12.4114C10.6976 12.446 10.7383 12.5148 10.7383 12.5891V14.5461C10.7382 14.6991 10.5737 14.7951 10.4404 14.72L9.04492 13.9309C8.98219 13.8954 8.94336 13.8292 8.94336 13.7571V11.8557ZM6.4375 10.5042C6.43771 10.3503 6.60407 10.2543 6.7373 10.3313L7.84375 10.9709C7.9053 11.0067 7.94326 11.0726 7.94336 11.1438V13.0715C7.94309 13.2249 7.77678 13.3206 7.64355 13.2444L6.53809 12.6125C6.4758 12.5769 6.4375 12.5105 6.4375 12.4387V10.5042Z" fill="url(#paint0_linear_4659_40121)" fill-opacity="0.5"/>
<path d="M14.8382 13.5013C14.8382 13.4291 14.8772 13.3624 14.9401 13.327L16.4119 12.4983C16.5452 12.4232 16.71 12.5196 16.71 12.6726V16.3573C16.71 16.4305 16.6701 16.4978 16.6058 16.5328L15.1348 17.3361C15.0016 17.4088 14.839 17.3124 14.839 17.1606L14.8382 13.5013Z" fill="white" fill-opacity="0.8"/>
<path d="M14.8382 13.5013C14.8382 13.4291 14.8772 13.3624 14.9401 13.327L16.4119 12.4983C16.5452 12.4232 16.71 12.5196 16.71 12.6726V16.3573C16.71 16.4305 16.6701 16.4978 16.6058 16.5328L15.1348 17.3361C15.0016 17.4088 14.839 17.3124 14.839 17.1606L14.8382 13.5013Z" fill="url(#paint1_linear_4659_40121)" fill-opacity="0.5"/>
</g>
<defs>
<linearGradient id="paint0_linear_4659_40121" x1="12.1154" y1="20" x2="6.61542" y2="10.5" gradientUnits="userSpaceOnUse">
<stop stop-color="#FFF5BA" stop-opacity="0"/>
<stop offset="1" stop-color="#FFF5BA"/>
</linearGradient>
<linearGradient id="paint1_linear_4659_40121" x1="17.3069" y1="18.8287" x2="13.0825" y2="14.1094" gradientUnits="userSpaceOnUse">
<stop stop-color="#FFF5BA" stop-opacity="0"/>
<stop offset="1" stop-color="#FFF5BA"/>
</linearGradient>
</defs>
</svg>
