<svg width="24" height="24" viewBox="0 0 24 24" fill="none" xmlns="http://www.w3.org/2000/svg">
<path d="M3 3C3 2.44772 3.44772 2 4 2H20C20.5523 2 21 2.44772 21 3V22C21 22.5523 20.5523 23 20 23H4.5C3.67157 23 3 22.3284 3 21.5V3Z" fill="#D68B52"/>
<path d="M3.47461 21.5888C3.47461 21.9526 4.05023 22.2582 4.41398 22.2582L19.4871 22.2488C20.0459 22.2488 20.3384 21.9526 20.3384 21.5888L20.2915 17.5913H3.47461V21.5888Z" fill="#F5F5F5"/>
<path d="M3.47461 21.5888C3.47461 21.9526 4.05023 22.2582 4.41398 22.2582L19.4871 22.2488C20.0459 22.2488 20.3384 21.9526 20.3384 21.5888L20.2915 17.5913H3.47461V21.5888Z" fill="black" fill-opacity="0.09"/>
<path d="M19.0261 19.8526C19.0261 19.8526 18.6267 20.9495 19.0317 21.4989C19.5023 22.1364 20.3236 21.9826 20.3236 21.6845V3.08265C20.3236 2.9589 20.2092 2.8689 20.0892 2.89515C19.8286 2.9514 19.3598 2.95327 18.7373 2.54077L19.0261 19.8526Z" fill="#F5F5F5"/>
<path d="M17.6551 20.6436H4.43262V1.20947C4.43262 1.20947 17.5557 1.20947 17.9795 1.20947C18.4051 1.20947 18.7051 1.32385 18.8457 1.51322C19.0295 1.75885 19.127 2.13197 19.127 2.54072V19.1717C19.127 19.9836 18.4689 20.6436 17.6551 20.6436Z" fill="#ECB354"/>
<path d="M17.2523 20.2089H4.78914C4.27164 20.2089 3.85352 19.7889 3.85352 19.2733V2.14705C3.85352 1.62955 4.27352 1.21143 4.78914 1.21143H17.2523C17.9685 1.21143 18.5498 1.62018 18.5498 2.50893V18.9133C18.5479 19.6277 17.9685 20.2089 17.2523 20.2089Z" fill="#ECB354"/>
<path d="M4.45578 20.5782C4.45578 20.5782 4.44641 1.48694 4.44641 1.21131H4.34641C4.34641 1.21131 3.91328 1.13631 3.62453 1.21131C3.10141 1.34819 2.95703 1.72881 2.95703 2.34944V20.0513C2.95703 21.3076 3.03391 21.8513 3.41453 22.2488C3.39203 21.9601 3.57766 20.9682 3.72953 20.6963C3.86453 20.4563 4.45578 20.5782 4.45578 20.5782Z" fill="#6D4C41"/>
<path d="M15.1888 6.42312C15.1888 6.26187 15.065 6.12875 14.9038 6.11562C14.195 6.05937 13.5219 5.79687 12.9256 5.39937C12.545 5.14625 12.0875 5 11.5944 5C11.1013 5 10.6438 5.14812 10.2631 5.39937C9.66688 5.795 8.99188 6.0575 8.285 6.11375C8.12375 6.12687 8 6.26 8 6.42125V8.28875C8 8.45 8.12375 8.58312 8.285 8.59625C8.99375 8.6525 9.66688 8.915 10.2631 9.31062C10.6438 9.56375 11.1013 9.71 11.5944 9.71C12.0875 9.71 12.545 9.56187 12.9256 9.31062C13.5219 8.915 14.1969 8.6525 14.9038 8.59437C15.065 8.58125 15.1888 8.44812 15.1888 8.28687V6.42312Z" fill="#FFFDE7"/>
</svg>
