<svg width="17" height="16" viewBox="0 0 17 16" fill="none" xmlns="http://www.w3.org/2000/svg">
<path d="M8.50098 9.22852C9.71643 9.22865 10.5268 9.97963 10.8066 10.3994C10.9871 10.6705 10.9135 11.0371 10.6426 11.2178C10.3717 11.3978 10.0059 11.3242 9.8252 11.0537C9.70149 10.8683 9.22105 10.4083 8.50098 10.4082C7.78073 10.4082 7.30048 10.8683 7.17676 11.0537C6.99608 11.3245 6.62939 11.3981 6.3584 11.2178C6.08745 11.0371 6.01396 10.6705 6.19434 10.3994C6.47421 9.97961 7.28529 9.22852 8.50098 9.22852Z" fill="#111827"/>
<path d="M11.4707 5.20605C11.6854 4.99176 12.0334 4.99169 12.248 5.20605C12.4626 5.42072 12.4624 5.76862 12.248 5.9834L11.9102 6.32031L12.248 6.6582C12.4624 6.87282 12.4622 7.2208 12.248 7.43555C12.0333 7.65025 11.6855 7.65007 11.4707 7.43555L11.1328 7.09766L10.7959 7.43555C10.5812 7.65029 10.2334 7.65022 10.0186 7.43555C9.80406 7.22074 9.80387 6.87289 10.0186 6.6582L10.3555 6.32031L10.0186 5.9834C9.80402 5.76859 9.80385 5.42076 10.0186 5.20605C10.2333 4.99193 10.5813 4.99171 10.7959 5.20605L11.1328 5.54297L11.4707 5.20605Z" fill="#111827"/>
<path d="M6.20508 5.16113C6.41981 4.9464 6.76762 4.94651 6.98242 5.16113C7.19711 5.37593 7.19718 5.72372 6.98242 5.93848L6.64453 6.27539L6.98242 6.61328C7.19708 6.82806 7.19713 7.17587 6.98242 7.39062C6.76767 7.60535 6.41987 7.60529 6.20508 7.39062L5.86719 7.05273L5.53027 7.39062C5.31551 7.60521 4.96767 7.60526 4.75293 7.39062C4.53836 7.17588 4.53837 6.82803 4.75293 6.61328L5.08984 6.27539L4.75293 5.93848C4.53815 5.7237 4.53817 5.37592 4.75293 5.16113C4.96772 4.94639 5.3155 4.94636 5.53027 5.16113L5.86719 5.49805L6.20508 5.16113Z" fill="#111827"/>
<path fill-rule="evenodd" clip-rule="evenodd" d="M8.5 0.949219C12.3934 0.94943 15.5498 4.1075 15.5498 8.00098C15.5493 11.894 12.3931 15.0506 8.5 15.0508C4.60669 15.0508 1.44969 11.8942 1.44922 8.00098C1.44922 4.10737 4.60639 0.949219 8.5 0.949219ZM8.5 2.25098C5.32436 2.25098 2.75 4.82534 2.75 8.00098C2.75048 11.1762 5.32466 13.751 8.5 13.751C11.6752 13.7508 14.2495 11.1761 14.25 8.00098C14.25 4.82547 11.6755 2.25119 8.5 2.25098Z" fill="#111827"/>
</svg>
