<svg width="17" height="16" viewBox="0 0 17 16" fill="none" xmlns="http://www.w3.org/2000/svg">
<path d="M8.44873 3.2002C8.89056 3.2002 9.24854 3.55817 9.24854 4V7.2002H12.4487C12.8906 7.2002 13.2485 7.55817 13.2485 8C13.2485 8.44183 12.8906 8.7998 12.4487 8.7998H9.24854V12C9.24854 12.4418 8.89056 12.7998 8.44873 12.7998C8.0069 12.7998 7.64893 12.4418 7.64893 12V8.7998H4.44873C4.0069 8.7998 3.64893 8.44183 3.64893 8C3.64893 7.55817 4.0069 7.2002 4.44873 7.2002H7.64893V4C7.64893 3.55817 8.0069 3.2002 8.44873 3.2002Z" fill="#111827"/>
</svg>
