<svg width="25" height="24" viewBox="0 0 25 24" fill="none" xmlns="http://www.w3.org/2000/svg">
<path d="M7.02361 9.64697C7.2188 9.45177 7.53533 9.45174 7.73064 9.64697C7.92589 9.84228 7.92584 10.1588 7.73064 10.354L5.02458 13.061H5.02361C3.26695 14.8184 3.26749 17.6671 5.02458 19.4243C6.7819 21.1815 9.63056 21.1814 11.3879 19.4243L14.0949 16.7173C14.29 16.5223 14.6067 16.5224 14.8019 16.7173C14.9971 16.9125 14.997 17.2291 14.8019 17.4243L12.0949 20.1313C9.947 22.279 6.46439 22.2791 4.31657 20.1313C2.16937 17.9837 2.16851 14.5008 4.3156 12.353L4.31657 12.354L7.02361 9.64697ZM12.8019 3.86865C14.9498 1.72077 18.4324 1.72077 20.5802 3.86865C22.728 6.01651 22.728 9.49814 20.5802 11.646L17.8732 14.353C17.6779 14.5483 17.3614 14.5483 17.1662 14.353C16.9712 14.1578 16.9711 13.8412 17.1662 13.646L19.8732 10.939C21.6304 9.18163 21.6304 6.33302 19.8732 4.57568C18.1159 2.81832 15.2663 2.81832 13.509 4.57568L10.8029 7.28271C10.6078 7.47778 10.2912 7.47749 10.0959 7.28271C9.90061 7.08745 9.90061 6.76997 10.0959 6.57471L12.8019 3.86865Z" stroke="#111827"/>
<path d="M15.2772 9.17163L9.6203 14.8285" stroke="#111827" stroke-width="2" stroke-linecap="round" stroke-linejoin="round"/>
</svg>
