<svg width="24" height="24" viewBox="0 0 24 24" fill="none" xmlns="http://www.w3.org/2000/svg">
<mask id="path-1-inside-1_2894_18181" fill="white">
<path d="M14.7069 16.3641C15.0974 16.7546 15.0974 17.3878 14.7069 17.7783L12 20.4852C9.65686 22.8281 5.85781 22.8282 3.51472 20.4852C1.17171 18.1421 1.1718 14.343 3.51472 11.9999L6.22162 9.293C6.61212 8.9025 7.2453 8.90254 7.63583 9.293C8.02629 9.68353 8.02633 10.3167 7.63583 10.7072L4.92894 13.4141C3.36706 14.9762 3.36697 17.5089 4.92894 19.071C6.49097 20.6329 9.0237 20.6328 10.5858 19.071L13.2927 16.3641C13.6832 15.9736 14.3164 15.9736 14.7069 16.3641ZM20.4853 3.51461C22.8284 5.85776 22.8284 9.65675 20.4853 11.9999L17.7784 14.7068C17.3879 15.0973 16.7547 15.0973 16.3642 14.7068C15.9737 14.3163 15.9737 13.6831 16.3642 13.2926L19.0711 10.5857C20.6332 9.02358 20.6332 6.49092 19.0711 4.92883C17.509 3.36673 14.9763 3.36673 13.4142 4.92883L10.7073 7.63572C10.3168 8.02624 9.68364 8.02624 9.29311 7.63572C8.90259 7.2452 8.90259 6.61203 9.29311 6.22151L12 3.51461C14.3432 1.17147 18.1421 1.17147 20.4853 3.51461Z"/>
</mask>
<path d="M14.7069 16.3641L15.4141 15.657L15.4139 15.6569L14.7069 16.3641ZM14.7069 17.7783L13.9998 17.0712L14.7069 17.7783ZM12 20.4852L12.7071 21.1923L12.7071 21.1923L12 20.4852ZM3.51472 20.4852L2.80761 21.1923L2.80763 21.1923L3.51472 20.4852ZM3.51472 11.9999L2.80762 11.2928L2.80758 11.2928L3.51472 11.9999ZM7.63583 9.293L8.343 8.58595L8.34288 8.58583L7.63583 9.293ZM4.92894 13.4141L4.22183 12.707L4.22178 12.707L4.92894 13.4141ZM4.92894 19.071L4.22182 19.7781L4.22185 19.7781L4.92894 19.071ZM10.5858 19.071L11.2928 19.7781L11.2929 19.7781L10.5858 19.071ZM13.2927 16.3641L12.5856 15.657L13.2927 16.3641ZM10.7073 7.63572L11.4144 8.34283L10.7073 7.63572ZM9.29311 6.22151L10.0002 6.92861L9.29311 6.22151ZM12 3.51461L12.7071 4.22172L12 3.51461ZM14.7069 16.3641L13.9997 17.0711L13.9998 17.0712L14.7069 17.7783L15.414 18.4854C16.1951 17.7043 16.1949 16.438 15.4141 15.657L14.7069 16.3641ZM14.7069 17.7783L13.9998 17.0712L11.2929 19.7781L12 20.4852L12.7071 21.1923L15.414 18.4854L14.7069 17.7783ZM12 20.4852L11.2929 19.778C9.34028 21.7305 6.17436 21.7305 4.22182 19.7781L3.51472 20.4852L2.80763 21.1923C5.54125 23.9258 9.97344 23.9257 12.7071 21.1923L12 20.4852ZM3.51472 20.4852L4.22184 19.7781C2.26936 17.8255 2.2694 14.6596 4.22186 12.707L3.51472 11.9999L2.80758 11.2928C0.0742009 14.0265 0.0740561 18.4586 2.80761 21.1923L3.51472 20.4852ZM3.51472 11.9999L4.22183 12.707L6.92872 10.0001L6.22162 9.293L5.51451 8.58589L2.80762 11.2928L3.51472 11.9999ZM6.22162 9.293L6.92872 10.0001L6.92878 10.0002L7.63583 9.293L8.34288 8.58583C7.5619 7.80499 6.2956 7.80481 5.51451 8.58589L6.22162 9.293ZM7.63583 9.293L6.92866 10L6.92872 10.0001L7.63583 10.7072L8.34294 11.4143C9.12402 10.6332 9.12384 9.36693 8.343 8.58595L7.63583 9.293ZM7.63583 10.7072L6.92872 10.0001L4.22183 12.707L4.92894 13.4141L5.63604 14.1212L8.34294 11.4143L7.63583 10.7072ZM4.92894 13.4141L4.22178 12.707C2.26948 14.6596 2.26931 17.8255 4.22182 19.7781L4.92894 19.071L5.63606 18.3639C4.46463 17.1924 4.46464 15.2928 5.63609 14.1212L4.92894 13.4141ZM4.92894 19.071L4.22185 19.7781C6.17444 21.7306 9.34028 21.7304 11.2928 19.7781L10.5858 19.071L9.87873 18.3638C8.70712 19.5353 6.80751 19.5353 5.63603 18.3638L4.92894 19.071ZM10.5858 19.071L11.2929 19.7781L13.9998 17.0712L13.2927 16.3641L12.5856 15.657L9.87868 18.3639L10.5858 19.071ZM13.2927 16.3641L13.9998 17.0712L13.9999 17.0712L14.7069 16.3641L15.4139 15.6569C14.633 14.8761 13.3667 14.8759 12.5856 15.657L13.2927 16.3641ZM20.4853 3.51461L19.7782 4.22172C21.7308 6.17434 21.7308 9.34017 19.7782 11.2928L20.4853 11.9999L21.1924 12.707C23.9261 9.97333 23.9261 5.54118 21.1924 2.80751L20.4853 3.51461ZM20.4853 11.9999L19.7782 11.2928L17.0713 13.9997L17.7784 14.7068L18.4855 15.4139L21.1924 12.707L20.4853 11.9999ZM17.7784 14.7068L17.0713 13.9997L16.3642 14.7068L15.6571 15.4139C16.4381 16.1949 17.7045 16.1949 18.4855 15.4139L17.7784 14.7068ZM16.3642 14.7068L17.0713 13.9997L16.3642 13.2926L15.6571 12.5855C14.876 13.3665 14.876 14.6328 15.6571 15.4139L16.3642 14.7068ZM16.3642 13.2926L17.0713 13.9997L19.7782 11.2928L19.0711 10.5857L18.364 9.87857L15.6571 12.5855L16.3642 13.2926ZM19.0711 10.5857L19.7782 11.2928C21.7308 9.34017 21.7308 6.17434 19.7782 4.22172L19.0711 4.92883L18.364 5.63593C19.5355 6.80751 19.5355 8.707 18.364 9.87857L19.0711 10.5857ZM19.0711 4.92883L19.7782 4.22172C17.8256 2.2691 14.6597 2.2691 12.7071 4.22172L13.4142 4.92883L14.1213 5.63593C15.2929 4.46436 17.1924 4.46436 18.364 5.63593L19.0711 4.92883ZM13.4142 4.92883L12.7071 4.22172L10.0002 6.92861L10.7073 7.63572L11.4144 8.34283L14.1213 5.63593L13.4142 4.92883ZM10.7073 7.63572L10.0002 6.92861L9.29311 7.63572L8.586 8.34283C9.36705 9.12388 10.6334 9.12388 11.4144 8.34283L10.7073 7.63572ZM9.29311 7.63572L10.0002 6.92861L9.29311 6.22151L8.586 5.5144C7.80496 6.29545 7.80496 7.56178 8.586 8.34283L9.29311 7.63572ZM9.29311 6.22151L10.0002 6.92861L12.7071 4.22172L12 3.51461L11.2929 2.80751L8.586 5.5144L9.29311 6.22151ZM12 3.51461L12.7071 4.22172C14.6597 2.2691 17.8256 2.2691 19.7782 4.22172L20.4853 3.51461L21.1924 2.80751C18.4587 0.0738365 14.0266 0.0738365 11.2929 2.80751L12 3.51461Z" fill="#111827" mask="url(#path-1-inside-1_2894_18181)"/>
<path d="M14.8284 9.17163L9.17157 14.8285" stroke="#111827" stroke-width="2" stroke-linecap="round" stroke-linejoin="round"/>
</svg>
