<svg width="19" height="19" viewBox="0 0 19 19" fill="none" xmlns="http://www.w3.org/2000/svg">
<path d="M7.49945 1.26725C7.66053 0.831943 8.27623 0.831944 8.43731 1.26725L10.0408 5.60057C10.0914 5.73743 10.1993 5.84534 10.3362 5.89598L14.6695 7.49945C15.1048 7.66053 15.1048 8.27623 14.6695 8.43731L10.3362 10.0408C10.1993 10.0914 10.0914 10.1993 10.0408 10.3362L8.43731 14.6695C8.27623 15.1048 7.66053 15.1048 7.49945 14.6695L5.89598 10.3362C5.84534 10.1993 5.73743 10.0914 5.60057 10.0408L1.26725 8.43731C0.831943 8.27623 0.831944 7.66053 1.26725 7.49945L5.60057 5.89598C5.73743 5.84534 5.84534 5.73743 5.89598 5.60057L7.49945 1.26725Z" fill="#1F2937"/>
<path d="M13.7604 11.5119C13.9215 11.0766 14.5372 11.0766 14.6982 11.5119L15.2256 12.9371C15.2763 13.074 15.3842 13.1819 15.521 13.2325L16.9462 13.7599C17.3816 13.921 17.3816 14.5367 16.9462 14.6977L15.521 15.2251C15.3842 15.2758 15.2763 15.3837 15.2256 15.5205L14.6982 16.9458C14.5372 17.3811 13.9215 17.3811 13.7604 16.9458L13.233 15.5205C13.1824 15.3837 13.0745 15.2758 12.9376 15.2251L11.5124 14.6977C11.0771 14.5367 11.0771 13.921 11.5124 13.7599L12.9376 13.2325C13.0745 13.1819 13.1824 13.074 13.233 12.9371L13.7604 11.5119Z" fill="#1F2937"/>
</svg>
