<svg width="35" height="35" viewBox="0 0 35 35" fill="none" xmlns="http://www.w3.org/2000/svg">
<circle cx="17.5" cy="17.5" r="17.5" fill="#FBCB5E"/>
<path d="M13.5 25C13.9444 24.3333 15.3667 23 17.5 23C19.6333 23 21.0556 24.3333 21.5 25" stroke="#111827" stroke-width="2.6" stroke-linecap="round"/>
<path d="M12.5898 12.8855C12.9804 12.495 13.6134 12.495 14.0039 12.8855C14.3944 13.276 14.3944 13.909 14.0039 14.2996L13.1104 15.1921L14.0039 16.0857C14.3944 16.4762 14.3944 17.1092 14.0039 17.4998C13.6134 17.8903 12.9804 17.8903 12.5898 17.4998L11.6963 16.6062L10.8037 17.4998C10.4132 17.8903 9.78017 17.8903 9.38965 17.4998C8.99913 17.1092 8.99914 16.4762 9.38965 16.0857L10.2822 15.1921L9.38965 14.2996C8.99914 13.909 8.99914 13.276 9.38965 12.8855C9.78017 12.495 10.4132 12.495 10.8037 12.8855L11.6963 13.7781L12.5898 12.8855Z" fill="#111827"/>
<path d="M24.1963 12.986C24.5868 12.5954 25.2198 12.5954 25.6104 12.986C26.0008 13.3765 26.0008 14.0095 25.6104 14.4L24.7168 15.2926L25.6104 16.1862C26.0008 16.5767 26.0008 17.2097 25.6104 17.6002C25.2199 17.9907 24.5868 17.9906 24.1963 17.6002L23.3027 16.7067L22.4102 17.6002C22.0197 17.9907 21.3866 17.9907 20.9961 17.6002C20.6056 17.2097 20.6056 16.5767 20.9961 16.1862L21.8887 15.2926L20.9961 14.4C20.6056 14.0095 20.6056 13.3765 20.9961 12.986C21.3866 12.5954 22.0196 12.5954 22.4102 12.986L23.3027 13.8785L24.1963 12.986Z" fill="#111827"/>
</svg>
